<?xml version="1.0" standalone="no"?>
<!DOCTYPE svg PUBLIC "-//W3C//DTD SVG 20010904//EN"
 "http://www.w3.org/TR/2001/REC-SVG-20010904/DTD/svg10.dtd">
<svg version="1.0" xmlns="http://www.w3.org/2000/svg"
 width="1920.000000pt" height="1920.000000pt" viewBox="0 0 1920.000000 1920.000000"
 preserveAspectRatio="xMidYMid meet">

<g transform="translate(0.000000,1920.000000) scale(0.100000,-0.100000)"
fill="#000000" stroke="none">
<path d="M7375 12479 c-134 -55 -292 -132 -435 -209 -52 -29 -165 -87 -250
-130 -635 -321 -1408 -558 -2050 -630 -122 -14 -168 -35 -199 -90 -28 -50 -26
-94 9 -229 17 -62 30 -123 30 -135 0 -20 -20 -25 -322 -86 -364 -73 -384 -81
-376 -149 3 -20 37 -153 77 -296 206 -736 262 -939 286 -1030 14 -55 73 -271
130 -480 147 -539 308 -1136 350 -1300 20 -77 76 -288 125 -470 49 -181 105
-395 125 -475 20 -80 72 -278 115 -440 43 -162 101 -385 129 -494 28 -112 58
-211 69 -225 36 -48 56 -48 373 13 588 111 1025 179 1564 241 1691 194 3259
194 4950 0 539 -62 976 -130 1564 -241 317 -61 337 -61 373 -13 11 14 41 113
69 225 28 109 86 332 129 494 43 162 95 360 115 440 20 80 76 294 125 475 49
182 105 393 125 470 36 140 142 532 366 1360 117 433 273 998 405 1470 37 132
69 256 72 276 7 68 -12 76 -376 149 -302 61 -322 66 -322 86 0 12 13 73 30
135 35 135 37 179 9 229 -31 55 -77 76 -199 90 -643 72 -1414 309 -2050 630
-85 43 -198 101 -250 130 -204 110 -555 269 -567 256 -7 -7 -83 -219 -83 -230
0 -6 28 -22 63 -35 70 -26 248 -114 578 -284 123 -64 283 -141 354 -172 484
-212 1064 -400 1450 -472 72 -13 356 -63 363 -63 9 0 -5 -75 -53 -275 -31
-126 -78 -327 -106 -445 -27 -118 -99 -426 -159 -685 -156 -670 -265 -1146
-322 -1400 -26 -121 -95 -429 -153 -685 -57 -256 -148 -661 -200 -900 -53
-239 -98 -436 -100 -439 -9 -8 -241 31 -349 59 -157 40 -315 100 -491 184
-203 98 -480 250 -628 345 -356 229 -511 309 -714 367 -315 92 -593 96 -878
13 -125 -37 -314 -130 -423 -209 -46 -33 -87 -60 -93 -60 -5 0 -9 50 -9 115
l0 114 -41 -14 c-51 -18 -151 -19 -201 -1 l-38 14 0 -114 c0 -64 -4 -114 -9
-114 -6 0 -47 27 -93 60 -166 119 -369 206 -575 246 -120 24 -393 25 -518 2
-277 -52 -472 -136 -805 -345 -251 -159 -307 -192 -507 -298 -358 -189 -589
-281 -834 -329 -140 -27 -249 -41 -249 -32 0 10 -173 792 -295 1336 -58 256
-129 575 -159 710 -60 271 -151 666 -316 1375 -60 259 -132 567 -159 685 -28
118 -75 319 -106 445 -30 127 -55 240 -55 252 0 19 9 23 98 38 384 66 625 124
927 222 451 146 768 276 1144 470 330 170 508 258 578 284 35 13 63 29 63 35
0 7 -11 43 -25 80 -14 38 -32 88 -41 112 -9 23 -19 42 -22 42 -4 -1 -61 -23
-127 -51z"/>
</g>
</svg>
